<?xml version="1.0" encoding="utf-8"?>
<svg xmlns="http://www.w3.org/2000/svg" width="190" height="190" class="segno"><path transform="scale(10)" class="qrline" stroke="#000" d="M2 2.5h7m1 0h1m1 0h1m1 0h1m1 0h1m-15 1h1m5 0h1m2 0h2m1 0h1m-13 1h1m1 0h3m1 0h1m1 0h1m2 0h1m2 0h1m-15 1h1m1 0h3m1 0h1m1 0h3m1 0h1m-13 1h1m1 0h3m1 0h1m1 0h1m1 0h4m-14 1h1m5 0h1m1 0h2m1 0h1m-12 1h7m2 0h1m1 0h1m1 0h1m-6 1h1m-9 1h1m4 0h2m1 0h1m1 0h5m-14 1h1m1 0h6m5 0h1m-15 1h2m5 0h6m1 0h1m-13 1h5m1 0h1m5 0h1m-15 1h5m1 0h2m1 0h4m1 0h1m-14 1h1m2 0h1m1 0h1m1 0h1m5 0h1m-15 1h3m3 0h2m1 0h2m3 0h1"/></svg>
